<!--?xml version="1.0" encoding="utf-8"?-->
<!-- Generator: Adobe Illustrator 19.1.1, SVG Export Plug-In . SVG Version: 6.00 Build 0)  -->
<svg version="1.1" id="_x31_0" xmlns="http://www.w3.org/2000/svg" xmlns:xlink="http://www.w3.org/1999/xlink" x="0px" y="0px" viewBox="0 0 512 512" style="width: 256px; height: 256px; opacity: 1;" xml:space="preserve">
<style type="text/css">
	.st0{fill:#374149;}
</style>
<g>
	<path class="st0" d="M326.172,223.693c-8.254,0-15.035,6.063-16.282,13.965l-35.66,11.582l-10.738,3.438v-48.734
		c5.356-2.738,9.062-8.25,9.062-14.676c0-9.137-7.41-16.542-16.546-16.542c-9.133,0-16.543,7.406-16.543,16.542
		c0,6.426,3.707,11.938,9.062,14.676v37.43l-0.046,11.359l-46.371-15.07c-1.246-7.906-8.027-13.969-16.286-13.969
		c-9.133,0-16.542,7.406-16.542,16.543c0,9.141,7.41,16.547,16.542,16.547c4.578,0,8.723-1.863,11.719-4.867l35.473,11.527
		l10.851,3.578l-28.656,39.43c-0.848-0.137-1.695-0.262-2.582-0.262c-9.137,0-16.543,7.406-16.543,16.542
		c0,9.137,7.406,16.543,16.543,16.543c9.137,0,16.543-7.406,16.543-16.543c0-2.703-0.707-5.218-1.859-7.473l21.934-30.171
		l6.793-9.262l28.648,39.43c-1.152,2.258-1.859,4.769-1.859,7.476c0,9.137,7.406,16.543,16.543,16.543
		c9.137,0,16.543-7.406,16.543-16.543c0-9.137-7.406-16.542-16.543-16.542c-0.883,0-1.734,0.125-2.578,0.262l-21.992-30.274
		l-6.641-9.226l46.293-15.039c2.997,3.008,7.141,4.871,11.719,4.871c9.141,0,16.546-7.406,16.546-16.547
		C342.718,231.1,335.313,223.693,326.172,223.693z" style="fill: rgb(240, 200, 130);"></path>
	<path class="st0" d="M512,228.588c0-72.504-57.918-131.738-129.918-133.863C363.508,43.037,314.004,5.975,256,5.975
		c-58,0-107.512,37.062-126.082,88.75C57.918,96.85,0,156.084,0,228.588c0,42.867,19.886,81.465,51.965,106.117
		c-3.512,12.058-5.332,24.641-5.332,37.398c0,73.844,60.074,133.922,133.922,133.922c27.203,0,53.485-8.441,75.45-23.402
		c21.965,14.961,48.238,23.402,75.446,23.402c73.843,0,133.922-60.078,133.922-133.922c0-12.758-1.821-25.34-5.332-37.402
		C492.114,310.049,512,271.456,512,228.588z M397.93,314.28c-0.058,0.015-0.113,0.031-0.168,0.046
		c13.477,15.458,21.66,35.657,21.66,57.778c0,48.586-39.386,87.973-87.972,87.973c-32.035,0-60.066-17.129-75.45-42.722
		c-15.383,25.594-43.41,42.722-75.446,42.722c-48.59,0-87.976-39.386-87.976-87.973c0-19.316,6.246-37.168,16.801-51.676
		c1.515-2.042,3.117-4.031,4.824-5.945c-0.027-0.008-0.051-0.016-0.074-0.02c0.039-0.042,0.07-0.094,0.11-0.137
		c-39.106-8.941-68.289-43.918-68.289-85.738c0-48.586,39.386-87.973,87.972-87.973c10.489,0,20.504,1.938,29.829,5.305
		c1.496,0.57,3.011,1.066,4.472,1.726c0-0.027,0-0.051-0.004-0.078c0.055,0.023,0.11,0.039,0.165,0.062
		c-0.219-2.55-0.356-5.125-0.356-7.734c0-48.586,39.387-87.972,87.973-87.972c48.586,0,87.973,39.386,87.973,87.972
		c0,2.254-0.141,4.477-0.313,6.688c-0.043,0.293-0.054,0.609-0.11,0.898c0.024-0.008,0.047-0.016,0.07-0.024
		c-0.004,0.055-0.004,0.114-0.007,0.172c10.59-4.511,22.234-7.015,34.465-7.015c48.59,0,87.972,39.386,87.972,87.973
		c0,39.098-25.515,72.203-60.789,83.652c-2.41,0.762-4.871,1.422-7.378,1.981C397.898,314.24,397.914,314.26,397.93,314.28z" style="fill: rgb(240, 100, 110);"></path>
</g>
</svg>
